<?xml version="1.0" encoding="utf-8"?>
<!-- Generator: Adobe Illustrator 26.0.2, SVG Export Plug-In . SVG Version: 6.00 Build 0)  -->
<svg version="1.1" id="Layer_1" xmlns="http://www.w3.org/2000/svg" xmlns:xlink="http://www.w3.org/1999/xlink" x="0px" y="0px"
	 viewBox="0 0 1180 768" style="enable-background:new 0 0 1180 768;" xml:space="preserve">
<g>
	<path d="M569.5,0C470,0,389,81,389,180.6v128.7c0,56.1-45.6,101.7-101.7,101.7h-273L0,503.8h294.3c99.6,0,180.5-81,180.5-180.5
		V194.2c0-56.1,45.7-101.7,101.7-101.7h604V0H569.5z"/>
	<path d="M922.4,226.5c-27.1,29.8-39.9,68.4-36.2,108.6c6.7,71.6,70.2,127.7,144.5,127.7h65.1c-13.6,40.7-61.5,73.3-110.2,73.3
		H880.5l-14.3,92.7h119.4c107.5,0,195-87.5,195-195V180.3h-153.7C987.2,180.3,949.1,197.1,922.4,226.5 M978.5,326.5
		c-1.4-13.9,3.1-27.2,12.4-37.5c9.2-10.2,22.3-16,36-16h73.3v97.3h-70.8C1003.2,370.2,980.9,351,978.5,326.5"/>
	<path d="M774.6,180.3H672.3l59.9,159.9c6.1,15.3,4.7,32.9-3.7,47.1c-7.7,13-20.4,21.4-34.9,23.1c-2,0.2-4.1,0.4-6.2,0.4H530.2
		l-14.3,92.6h171.6c27.1,0,53.6-7.5,76.6-21.8c50.8-31.6,75.7-94,61.7-156.4L774.6,180.3z"/>
	<path d="M283.9,248.5h-91c-4.5-11.1-8.3-22.4-8.2-33.3c0.1-5.1,1-9.4,2.8-12.4c3.4-5.7,11.6-10,21.9-11.3
		c8.4-1.1,17.3-0.7,26.8-0.3l7.7,0.2c1.8,0,3.6,0.1,5.4,0.2l21.7,1l-0.1-60.6l-15.8-1.4c-21.1-1.9-44.9-4-68.3,1
		c-28.5,6.1-51.2,22.3-62.2,44.4c-7.2,14.6-9.6,32.5-6.8,51.7c1,7.2,2.7,14.2,4.6,20.9H93.9l-11,67.2h201V248.5z"/>
	<polygon points="819.7,628.8 819.7,627.7 762.7,627.7 709.1,686.3 709.1,571.6 660.9,571.6 660.9,768 709.1,768 709.1,737.1 
		729,717.8 765.5,768 822.5,768 759.6,687.8 	"/>
	<polygon points="218.2,719.6 178,571.6 113.6,571.6 73.7,719.6 51.1,571.6 0,571.6 36.3,768 108.2,768 145.8,613.2 182.1,768 
		255.9,768 291.9,571.6 240.8,571.6 	"/>
	<path d="M404.7,571.6v56.2h-36.3c-19.7,0-38.6,8.4-51.8,22.9c-13.5,14.8-19.8,33.9-18,53.9c3.2,33.8,31.9,60.6,66.4,63.1v0.3h5.3
		h23.2h27.6h3.3H453V571.6H404.7z M344.4,700.3c-0.7-6.9,1.5-13.5,6.1-18.6s11.1-7.9,17.9-7.9h36.3V722h-35.1
		C356.6,722,345.6,712.5,344.4,700.3"/>
	<path d="M582.4,571.6v56.2h-36.3c-19.7,0-38.6,8.4-51.8,22.9c-13.5,14.8-19.8,33.9-17.9,53.9c3.3,35.5,34.8,63.3,71.6,63.3h5.4
		h17.8h27.7h13.9h18V571.6H582.4z M547.3,722c-13,0-24.1-9.5-25.3-21.7c-0.7-6.9,1.5-13.5,6.1-18.6s11.1-7.9,17.9-7.9h36.3V722
		H547.3z"/>
</g>
</svg>
